<?xml version="1.0"?>
<!DOCTYPE svg PUBLIC "-//W3C//DTD SVG 1.1//EN" "http://www.w3.org/Graphics/SVG/1.1/DTD/svg11.dtd">
<svg viewBox="320 256 1279 874" preserveAspectRatio="xMinYMin meet" version="1.1" xmlns="http://www.w3.org/2000/svg">
<g id="background"><rect x="320" y="256" width="1279" height="874" fill="#FFFFFF" stroke="none"/></g>
<g id="DC Source">
<line x1="352" y1="1056" x2="352" y2="996" stroke="#A75757" stroke-opacity="1" stroke-width="3" stroke-linecap="round" fill="none" />
<line x1="352" y1="988" x2="352" y2="928" stroke="#679767" stroke-opacity="1" stroke-width="3" stroke-linecap="round" fill="none" />
<line x1="342" y1="996" x2="362" y2="996" stroke="#A75757" stroke-opacity="1" stroke-width="3" stroke-linecap="round" fill="none" />
<line x1="336" y1="988" x2="368" y2="988" stroke="#679767" stroke-opacity="1" stroke-width="3" stroke-linecap="round" fill="none" />
<text x="376" y="996.8" font-family="sans-serif" font-size="16" fill="#000000">9V</text>
</g>
<g id="Capacitor">
<line x1="448" y1="928" x2="448" y2="956" stroke="#679767" stroke-opacity="1" stroke-width="3" stroke-linecap="round" fill="none" />
<line x1="460" y1="956" x2="436" y2="956" stroke="#679767" stroke-opacity="1" stroke-width="3" stroke-linecap="round" fill="none" />
<line x1="448" y1="992" x2="448" y2="964" stroke="#877777" stroke-opacity="1" stroke-width="3" stroke-linecap="round" fill="none" />
<path d="M 459.3137 968.6863 A 16 16 0 0 0 436.6863 968.6863" stroke="#877777" stroke-opacity="1" stroke-width="3" stroke-linecap="round" fill="none" fill-opacity="0" />
<ellipse cx="448" cy="928" rx="4" ry="4" fill="#679767" fill-opacity="1" stroke="none" />
<ellipse cx="448" cy="992" rx="4" ry="4" fill="#877777" fill-opacity="1" stroke="none" />
<text x="466" y="964.8" font-family="sans-serif" font-size="16" fill="#000000">220uF</text>
</g>
<g id="Capacitor">
<line x1="448" y1="992" x2="448" y2="1020" stroke="#877777" stroke-opacity="1" stroke-width="3" stroke-linecap="round" fill="none" />
<line x1="460" y1="1020" x2="436" y2="1020" stroke="#877777" stroke-opacity="1" stroke-width="3" stroke-linecap="round" fill="none" />
<line x1="448" y1="1056" x2="448" y2="1028" stroke="#A75757" stroke-opacity="1" stroke-width="3" stroke-linecap="round" fill="none" />
<path d="M 459.3137 1032.686 A 16 16 0 0 0 436.6863 1032.686" stroke="#A75757" stroke-opacity="1" stroke-width="3" stroke-linecap="round" fill="none" fill-opacity="0" />
<ellipse cx="448" cy="992" rx="4" ry="4" fill="#877777" fill-opacity="1" stroke="none" />
<ellipse cx="448" cy="1056" rx="4" ry="4" fill="#A75757" fill-opacity="1" stroke="none" />
<text x="466" y="1028.8" font-family="sans-serif" font-size="16" fill="#000000">220uF</text>
</g>
<g id="Wire">
<line x1="366" y1="1056" x2="434" y2="1056" stroke="#FFFFFF" stroke-opacity="1" stroke-width="6" stroke-linecap="round" fill="none" />
<line x1="352" y1="1056" x2="448" y2="1056" stroke="#A75757" stroke-opacity="1" stroke-width="1.5" stroke-linecap="round" fill="none" />
<ellipse cx="448" cy="1056" rx="4" ry="4" fill="#A75757" fill-opacity="1" stroke="none" />
</g>
<g id="Resistor">
<line x1="576" y1="928" x2="576" y2="944" stroke="#679767" stroke-opacity="1" stroke-width="3" stroke-linecap="round" fill="none" />
<line x1="576" y1="976" x2="576" y2="992" stroke="#877777" stroke-opacity="1" stroke-width="3" stroke-linecap="round" fill="none" />
<polyline stroke="#679767" stroke-opacity="1" stroke-linecap="round" stroke-linejoin="round" stroke-width="3" fill="none" points="576,944 584,946.6667 576,949.3333 568,952 576,954.6667 " />
<polyline stroke="#6F8F6F" stroke-opacity="1" stroke-linecap="round" stroke-linejoin="round" stroke-width="3" fill="none" points="576,954.6667 584,957.3333 576,960 568,962.6667 576,965.3333 " />
<polyline stroke="#7F7F7F" stroke-opacity="1" stroke-linecap="round" stroke-linejoin="round" stroke-width="3" fill="none" points="576,965.3333 584,968 576,970.6667 568,973.3333 576,976 " />
<text x="591" y="964.8" font-family="sans-serif" font-size="16" fill="#000000">47k</text>
<ellipse cx="576" cy="992" rx="4" ry="4" fill="#877777" fill-opacity="1" stroke="none" />
</g>
<g id="Resistor">
<line x1="576" y1="992" x2="576" y2="1008" stroke="#877777" stroke-opacity="1" stroke-width="3" stroke-linecap="round" fill="none" />
<line x1="576" y1="1040" x2="576" y2="1056" stroke="#A75757" stroke-opacity="1" stroke-width="3" stroke-linecap="round" fill="none" />
<polyline stroke="#877777" stroke-opacity="1" stroke-linecap="round" stroke-linejoin="round" stroke-width="3" fill="none" points="576,1008 584,1010.667 576,1013.333 568,1016 576,1018.667 " />
<polyline stroke="#8F6F6F" stroke-opacity="1" stroke-linecap="round" stroke-linejoin="round" stroke-width="3" fill="none" points="576,1018.667 584,1021.333 576,1024 568,1026.667 576,1029.333 " />
<polyline stroke="#9F5F5F" stroke-opacity="1" stroke-linecap="round" stroke-linejoin="round" stroke-width="3" fill="none" points="576,1029.333 584,1032 576,1034.667 568,1037.333 576,1040 " />
<text x="591" y="1028.8" font-family="sans-serif" font-size="16" fill="#000000">47k</text>
<ellipse cx="576" cy="992" rx="4" ry="4" fill="#877777" fill-opacity="1" stroke="none" />
</g>
<g id="Wire">
<line x1="467" y1="1056" x2="557" y2="1056" stroke="#FFFFFF" stroke-opacity="1" stroke-width="6" stroke-linecap="round" fill="none" />
<line x1="448" y1="1056" x2="576" y2="1056" stroke="#A75757" stroke-opacity="1" stroke-width="1.5" stroke-linecap="round" fill="none" />
<text x="493" y="1043.8" font-family="sans-serif" font-size="16" fill="#000000">-4.5V</text>
<ellipse cx="448" cy="1056" rx="4" ry="4" fill="#A75757" fill-opacity="1" stroke="none" />
</g>
<g id="Wire">
<line x1="434" y1="928" x2="366" y2="928" stroke="#FFFFFF" stroke-opacity="1" stroke-width="6" stroke-linecap="round" fill="none" />
<line x1="448" y1="928" x2="352" y2="928" stroke="#679767" stroke-opacity="1" stroke-width="1.5" stroke-linecap="round" fill="none" />
<ellipse cx="448" cy="928" rx="4" ry="4" fill="#679767" fill-opacity="1" stroke="none" />
</g>
<g id="Wire">
<line x1="557" y1="928" x2="467" y2="928" stroke="#FFFFFF" stroke-opacity="1" stroke-width="6" stroke-linecap="round" fill="none" />
<line x1="576" y1="928" x2="448" y2="928" stroke="#679767" stroke-opacity="1" stroke-width="1.5" stroke-linecap="round" fill="none" />
<text x="496" y="915.8" font-family="sans-serif" font-size="16" fill="#000000">4.5V</text>
<ellipse cx="448" cy="928" rx="4" ry="4" fill="#679767" fill-opacity="1" stroke="none" />
</g>
<g id="Internal Port">
<polygon fill="#FFFFFF" fill-opacity="0.831372549019608" stroke="none" points="576,928 584,918 640,918 640,938 584,938 " />
<polygon stroke="#000000" stroke-opacity="1" stroke-width="1" stroke-linejoin="round" fill="none" points="576,928 584,918 640,918 640,938 584,938 " />
<text x="599.5" y="932.2" font-family="sans-serif" font-size="14" fill="#000000">V+</text>
</g>
<g id="Internal Port">
<polygon fill="#FFFFFF" fill-opacity="0.831372549019608" stroke="none" points="576,1056 584,1046 640,1046 640,1066 584,1066 " />
<polygon stroke="#000000" stroke-opacity="1" stroke-width="1" stroke-linejoin="round" fill="none" points="576,1056 584,1046 640,1046 640,1066 584,1066 " />
<text x="600.5" y="1060.2" font-family="sans-serif" font-size="14" fill="#000000">V-</text>
</g>
<g id="Sweep (linear)">
<ellipse cx="736" cy="864" rx="17" ry="17" fill="#FFFFFF" fill-opacity="0.831372549019608" stroke="none" />
<line x1="800" y1="864" x2="753" y2="864" stroke="#877777" stroke-opacity="1" stroke-width="3" stroke-linecap="round" fill="none" />
<ellipse cx="736" cy="864" rx="17" ry="17" stroke="#877777" stroke-opacity="1" stroke-width="3" fill="none" />
<polyline stroke="#877777" stroke-opacity="1" stroke-linecap="round" stroke-linejoin="round" stroke-width="3" fill="none" points="726,864.9999 727,862.5244 728,860.2055 729,858.2897 730,856.9803 731,856.4165 732,856.6581 733,857.6795 734,859.3721 735,861.5563 736,864 737,866.4437 738,868.6279 739,870.3205 740,871.3419 741,871.5835 742,871.0197 743,869.7103 744,867.7945 745,865.4756 746,863.0001 " />
<text x="717" y="834.8" font-family="sans-serif" font-size="16" fill="#000000">81Hz</text>
</g>
<g id="Capacitor">
<line x1="832" y1="864" x2="860" y2="864" stroke="#877777" stroke-opacity="1" stroke-width="3" stroke-linecap="round" fill="none" />
<line x1="860" y1="852" x2="860" y2="876" stroke="#877777" stroke-opacity="1" stroke-width="3" stroke-linecap="round" fill="none" />
<line x1="896" y1="864" x2="868" y2="864" stroke="#877777" stroke-opacity="1" stroke-width="3" stroke-linecap="round" fill="none" />
<line x1="868" y1="852" x2="868" y2="876" stroke="#877777" stroke-opacity="1" stroke-width="3" stroke-linecap="round" fill="none" />
<text x="842" y="846.8" font-family="sans-serif" font-size="16" fill="#000000">100nF</text>
</g>
<g id="Resistor">
<line x1="896" y1="864" x2="960" y2="864" stroke="#877777" stroke-opacity="1" stroke-width="3" stroke-linecap="round" fill="none" />
<line x1="992" y1="864" x2="1056" y2="864" stroke="#877777" stroke-opacity="1" stroke-width="3" stroke-linecap="round" fill="none" />
<polyline stroke="#877777" stroke-opacity="1" stroke-linecap="round" stroke-linejoin="round" stroke-width="3" fill="none" points="960,864 962.6667,856 965.3333,864 968,872 970.6667,864 " />
<polyline stroke="#877777" stroke-opacity="1" stroke-linecap="round" stroke-linejoin="round" stroke-width="3" fill="none" points="970.6667,864 973.3333,856 976,864 978.6667,872 981.3333,864 " />
<polyline stroke="#877777" stroke-opacity="1" stroke-linecap="round" stroke-linejoin="round" stroke-width="3" fill="none" points="981.3333,864 984,856 986.6667,864 989.3333,872 992,864 " />
<text x="959" y="851.8" font-family="sans-serif" font-size="16" fill="#000000">470k</text>
<ellipse cx="1056" cy="864" rx="4" ry="4" fill="#877777" fill-opacity="1" stroke="none" />
</g>
<g id="Op-amp with Rails">
<line x1="1056" y1="864" x2="1104" y2="864" stroke="#877777" stroke-opacity="1" stroke-width="3" stroke-linecap="round" fill="none" />
<line x1="1056" y1="928" x2="1104" y2="928" stroke="#877777" stroke-opacity="1" stroke-width="3" stroke-linecap="round" fill="none" />
<line x1="1152" y1="832" x2="1152" y2="864" stroke="#679767" stroke-opacity="1" stroke-width="3" stroke-linecap="round" fill="none" />
<line x1="1152" y1="960" x2="1152" y2="928" stroke="#A75757" stroke-opacity="1" stroke-width="3" stroke-linecap="round" fill="none" />
<polygon fill="#FFFFFF" fill-opacity="0.831372549019608" stroke="none" points="1104,832 1104,960 1200,896 " />
<text x="1118" y="868.8" font-family="sans-serif" font-size="16" fill="#000000">-</text>
<text x="1114" y="931.8" font-family="sans-serif" font-size="16" fill="#000000">+</text>
<line x1="1200" y1="896" x2="1248" y2="896" stroke="#877777" stroke-opacity="1" stroke-width="3" stroke-linecap="round" fill="none" />
<polygon stroke="#000000" stroke-opacity="1" stroke-width="3" stroke-linejoin="round" fill="none" points="1104,832 1104,960 1200,896 " />
<ellipse cx="1056" cy="864" rx="4" ry="4" fill="#877777" fill-opacity="1" stroke="none" />
<ellipse cx="1248" cy="896" rx="4" ry="4" fill="#877777" fill-opacity="1" stroke="none" />
</g>
<g id="Internal Port">
<polygon fill="#FFFFFF" fill-opacity="0.831372549019608" stroke="none" points="1152,960 1160,950 1216,950 1216,970 1160,970 " />
<polygon stroke="#000000" stroke-opacity="1" stroke-width="1" stroke-linejoin="round" fill="none" points="1152,960 1160,950 1216,950 1216,970 1160,970 " />
<text x="1176.5" y="964.2" font-family="sans-serif" font-size="14" fill="#000000">V-</text>
</g>
<g id="Internal Port">
<polygon fill="#FFFFFF" fill-opacity="0.831372549019608" stroke="none" points="1152,832 1160,822 1216,822 1216,842 1160,842 " />
<polygon stroke="#000000" stroke-opacity="1" stroke-width="1" stroke-linejoin="round" fill="none" points="1152,832 1160,822 1216,822 1216,842 1160,842 " />
<text x="1175.5" y="836.2" font-family="sans-serif" font-size="14" fill="#000000">V+</text>
</g>
<g id="Resistor">
<line x1="1056" y1="768" x2="1136" y2="768" stroke="#877777" stroke-opacity="1" stroke-width="3" stroke-linecap="round" fill="none" />
<line x1="1168" y1="768" x2="1248" y2="768" stroke="#877777" stroke-opacity="1" stroke-width="3" stroke-linecap="round" fill="none" />
<polyline stroke="#877777" stroke-opacity="1" stroke-linecap="round" stroke-linejoin="round" stroke-width="3" fill="none" points="1136,768 1138.667,760 1141.333,768 1144,776 1146.667,768 " />
<polyline stroke="#877777" stroke-opacity="1" stroke-linecap="round" stroke-linejoin="round" stroke-width="3" fill="none" points="1146.667,768 1149.333,760 1152,768 1154.667,776 1157.333,768 " />
<polyline stroke="#877777" stroke-opacity="1" stroke-linecap="round" stroke-linejoin="round" stroke-width="3" fill="none" points="1157.333,768 1160,760 1162.667,768 1165.333,776 1168,768 " />
<text x="1135" y="755.8" font-family="sans-serif" font-size="16" fill="#000000">330k</text>
<ellipse cx="1056" cy="768" rx="4" ry="4" fill="#877777" fill-opacity="1" stroke="none" />
</g>
<g id="Wire">
<line x1="1248" y1="787" x2="1248" y2="877" stroke="#FFFFFF" stroke-opacity="1" stroke-width="6" stroke-linecap="round" fill="none" />
<line x1="1248" y1="768" x2="1248" y2="896" stroke="#877777" stroke-opacity="1" stroke-width="1.5" stroke-linecap="round" fill="none" />
<ellipse cx="1248" cy="896" rx="4" ry="4" fill="#877777" fill-opacity="1" stroke="none" />
</g>
<g id="Ground">
<line x1="1056" y1="928" x2="1056" y2="992" stroke="#877777" stroke-opacity="1" stroke-width="3" stroke-linecap="round" fill="none" />
<line x1="1066" y1="992" x2="1046" y2="992" stroke="#877777" stroke-opacity="1" stroke-width="3" stroke-linecap="round" fill="none" />
<line x1="1062" y1="997" x2="1050" y2="997" stroke="#877777" stroke-opacity="1" stroke-width="3" stroke-linecap="round" fill="none" />
<line x1="1058" y1="1002" x2="1054" y2="1002" stroke="#877777" stroke-opacity="1" stroke-width="3" stroke-linecap="round" fill="none" />
</g>
<g id="Wire">
<line x1="1056" y1="850" x2="1056" y2="782" stroke="#FFFFFF" stroke-opacity="1" stroke-width="6" stroke-linecap="round" fill="none" />
<line x1="1056" y1="864" x2="1056" y2="768" stroke="#877777" stroke-opacity="1" stroke-width="1.5" stroke-linecap="round" fill="none" />
<ellipse cx="1056" cy="864" rx="4" ry="4" fill="#877777" fill-opacity="1" stroke="none" />
<ellipse cx="1056" cy="768" rx="4" ry="4" fill="#877777" fill-opacity="1" stroke="none" />
</g>
<g id="Potentiometer">
<line x1="1312" y1="736" x2="1312" y2="752" stroke="#877777" stroke-opacity="1" stroke-width="3" stroke-linecap="round" fill="none" />
<line x1="1312" y1="784" x2="1312" y2="800" stroke="#877777" stroke-opacity="1" stroke-width="3" stroke-linecap="round" fill="none" />
<line x1="1312" y1="752" x2="1320" y2="754.6667" stroke="#877777" stroke-opacity="1" stroke-width="3" stroke-linecap="round" fill="none" />
<line x1="1320" y1="754.6667" x2="1312" y2="757.3333" stroke="#877777" stroke-opacity="1" stroke-width="3" stroke-linecap="round" fill="none" />
<line x1="1312" y1="757.3333" x2="1304" y2="760" stroke="#877777" stroke-opacity="1" stroke-width="3" stroke-linecap="round" fill="none" />
<line x1="1304" y1="760" x2="1312" y2="762.6667" stroke="#877777" stroke-opacity="1" stroke-width="3" stroke-linecap="round" fill="none" />
<line x1="1312" y1="762.6667" x2="1320" y2="765.3333" stroke="#877777" stroke-opacity="1" stroke-width="3" stroke-linecap="round" fill="none" />
<line x1="1320" y1="765.3333" x2="1312" y2="768" stroke="#877777" stroke-opacity="1" stroke-width="3" stroke-linecap="round" fill="none" />
<line x1="1312" y1="768" x2="1304" y2="770.6667" stroke="#877777" stroke-opacity="1" stroke-width="3" stroke-linecap="round" fill="none" />
<line x1="1304" y1="770.6667" x2="1312" y2="773.3333" stroke="#877777" stroke-opacity="1" stroke-width="3" stroke-linecap="round" fill="none" />
<line x1="1312" y1="773.3333" x2="1320" y2="776" stroke="#877777" stroke-opacity="1" stroke-width="3" stroke-linecap="round" fill="none" />
<line x1="1320" y1="776" x2="1312" y2="778.6667" stroke="#877777" stroke-opacity="1" stroke-width="3" stroke-linecap="round" fill="none" />
<line x1="1312" y1="778.6667" x2="1304" y2="781.3333" stroke="#877777" stroke-opacity="1" stroke-width="3" stroke-linecap="round" fill="none" />
<line x1="1304" y1="781.3333" x2="1312" y2="784" stroke="#877777" stroke-opacity="1" stroke-width="3" stroke-linecap="round" fill="none" />
<line x1="1344" y1="768" x2="1344" y2="761" stroke="#877777" stroke-opacity="1" stroke-width="3" stroke-linecap="round" fill="none" />
<line x1="1344" y1="761" x2="1320" y2="761" stroke="#877777" stroke-opacity="1" stroke-width="3" stroke-linecap="round" fill="none" />
<line x1="1328" y1="769" x2="1320" y2="761" stroke="#877777" stroke-opacity="1" stroke-width="3" stroke-linecap="round" fill="none" />
<line x1="1328" y1="753" x2="1320" y2="761" stroke="#877777" stroke-opacity="1" stroke-width="3" stroke-linecap="round" fill="none" />
<ellipse cx="1312" cy="800" rx="4" ry="4" fill="#877777" fill-opacity="1" stroke="none" />
<text x="1327" y="796.8" font-family="sans-serif" font-size="16" fill="#000000">1M</text>
</g>
<g id="Wire">
<line x1="1349" y1="768" x2="1371" y2="768" stroke="#FFFFFF" stroke-opacity="1" stroke-width="6" stroke-linecap="round" fill="none" />
<line x1="1344" y1="768" x2="1376" y2="768" stroke="#877777" stroke-opacity="1" stroke-width="1.5" stroke-linecap="round" fill="none" />
</g>
<g id="Wire">
<line x1="1376" y1="773" x2="1376" y2="795" stroke="#FFFFFF" stroke-opacity="1" stroke-width="6" stroke-linecap="round" fill="none" />
<line x1="1376" y1="768" x2="1376" y2="800" stroke="#877777" stroke-opacity="1" stroke-width="1.5" stroke-linecap="round" fill="none" />
</g>
<g id="Wire">
<line x1="1366" y1="800" x2="1322" y2="800" stroke="#FFFFFF" stroke-opacity="1" stroke-width="6" stroke-linecap="round" fill="none" />
<line x1="1376" y1="800" x2="1312" y2="800" stroke="#877777" stroke-opacity="1" stroke-width="1.5" stroke-linecap="round" fill="none" />
<ellipse cx="1312" cy="800" rx="4" ry="4" fill="#877777" fill-opacity="1" stroke="none" />
</g>
<g id="Resistor">
<line x1="1152" y1="704" x2="1120" y2="704" stroke="#877777" stroke-opacity="1" stroke-width="3" stroke-linecap="round" fill="none" />
<line x1="1088" y1="704" x2="1056" y2="704" stroke="#877777" stroke-opacity="1" stroke-width="3" stroke-linecap="round" fill="none" />
<polyline stroke="#877777" stroke-opacity="1" stroke-linecap="round" stroke-linejoin="round" stroke-width="3" fill="none" points="1120,704 1117.333,712 1114.667,704 1112,696 1109.333,704 " />
<polyline stroke="#877777" stroke-opacity="1" stroke-linecap="round" stroke-linejoin="round" stroke-width="3" fill="none" points="1109.333,704 1106.667,712 1104,704 1101.333,696 1098.667,704 " />
<polyline stroke="#877777" stroke-opacity="1" stroke-linecap="round" stroke-linejoin="round" stroke-width="3" fill="none" points="1098.667,704 1096,712 1093.333,704 1090.667,696 1088,704 " />
<text x="1087" y="691.8" font-family="sans-serif" font-size="16" fill="#000000">150k</text>
<ellipse cx="1152" cy="704" rx="4" ry="4" fill="#877777" fill-opacity="1" stroke="none" />
<ellipse cx="1056" cy="704" rx="4" ry="4" fill="#877777" fill-opacity="1" stroke="none" />
</g>
<g id="Resistor">
<line x1="1248" y1="704" x2="1216" y2="704" stroke="#877777" stroke-opacity="1" stroke-width="3" stroke-linecap="round" fill="none" />
<line x1="1184" y1="704" x2="1152" y2="704" stroke="#877777" stroke-opacity="1" stroke-width="3" stroke-linecap="round" fill="none" />
<polyline stroke="#877777" stroke-opacity="1" stroke-linecap="round" stroke-linejoin="round" stroke-width="3" fill="none" points="1216,704 1213.333,712 1210.667,704 1208,696 1205.333,704 " />
<polyline stroke="#877777" stroke-opacity="1" stroke-linecap="round" stroke-linejoin="round" stroke-width="3" fill="none" points="1205.333,704 1202.667,712 1200,704 1197.333,696 1194.667,704 " />
<polyline stroke="#877777" stroke-opacity="1" stroke-linecap="round" stroke-linejoin="round" stroke-width="3" fill="none" points="1194.667,704 1192,712 1189.333,704 1186.667,696 1184,704 " />
<text x="1183" y="691.8" font-family="sans-serif" font-size="16" fill="#000000">150k</text>
<ellipse cx="1152" cy="704" rx="4" ry="4" fill="#877777" fill-opacity="1" stroke="none" />
</g>
<g id="Capacitor">
<line x1="1152" y1="608" x2="1196" y2="608" stroke="#877777" stroke-opacity="1" stroke-width="3" stroke-linecap="round" fill="none" />
<line x1="1196" y1="596" x2="1196" y2="620" stroke="#877777" stroke-opacity="1" stroke-width="3" stroke-linecap="round" fill="none" />
<line x1="1248" y1="608" x2="1204" y2="608" stroke="#877777" stroke-opacity="1" stroke-width="3" stroke-linecap="round" fill="none" />
<line x1="1204" y1="596" x2="1204" y2="620" stroke="#877777" stroke-opacity="1" stroke-width="3" stroke-linecap="round" fill="none" />
<ellipse cx="1152" cy="608" rx="4" ry="4" fill="#877777" fill-opacity="1" stroke="none" />
<ellipse cx="1248" cy="608" rx="4" ry="4" fill="#877777" fill-opacity="1" stroke="none" />
<text x="1182" y="590.8" font-family="sans-serif" font-size="16" fill="#000000">10nF</text>
</g>
<g id="Wire">
<line x1="1258" y1="608" x2="1302" y2="608" stroke="#FFFFFF" stroke-opacity="1" stroke-width="6" stroke-linecap="round" fill="none" />
<line x1="1248" y1="608" x2="1312" y2="608" stroke="#877777" stroke-opacity="1" stroke-width="1.5" stroke-linecap="round" fill="none" />
<ellipse cx="1248" cy="608" rx="4" ry="4" fill="#877777" fill-opacity="1" stroke="none" />
</g>
<g id="Wire">
<line x1="1312" y1="627" x2="1312" y2="717" stroke="#FFFFFF" stroke-opacity="1" stroke-width="6" stroke-linecap="round" fill="none" />
<line x1="1312" y1="608" x2="1312" y2="736" stroke="#877777" stroke-opacity="1" stroke-width="1.5" stroke-linecap="round" fill="none" />
</g>
<g id="Capacitor">
<line x1="1056" y1="608" x2="1100" y2="608" stroke="#877777" stroke-opacity="1" stroke-width="3" stroke-linecap="round" fill="none" />
<line x1="1100" y1="596" x2="1100" y2="620" stroke="#877777" stroke-opacity="1" stroke-width="3" stroke-linecap="round" fill="none" />
<line x1="1152" y1="608" x2="1108" y2="608" stroke="#877777" stroke-opacity="1" stroke-width="3" stroke-linecap="round" fill="none" />
<line x1="1108" y1="596" x2="1108" y2="620" stroke="#877777" stroke-opacity="1" stroke-width="3" stroke-linecap="round" fill="none" />
<ellipse cx="1152" cy="608" rx="4" ry="4" fill="#877777" fill-opacity="1" stroke="none" />
<text x="1086" y="590.8" font-family="sans-serif" font-size="16" fill="#000000">10nF</text>
</g>
<g id="Wire">
<line x1="1248" y1="690" x2="1248" y2="622" stroke="#FFFFFF" stroke-opacity="1" stroke-width="6" stroke-linecap="round" fill="none" />
<line x1="1248" y1="704" x2="1248" y2="608" stroke="#877777" stroke-opacity="1" stroke-width="1.5" stroke-linecap="round" fill="none" />
<ellipse cx="1248" cy="608" rx="4" ry="4" fill="#877777" fill-opacity="1" stroke="none" />
</g>
<g id="Wire">
<line x1="1152" y1="690" x2="1152" y2="622" stroke="#FFFFFF" stroke-opacity="1" stroke-width="6" stroke-linecap="round" fill="none" />
<line x1="1152" y1="704" x2="1152" y2="608" stroke="#877777" stroke-opacity="1" stroke-width="1.5" stroke-linecap="round" fill="none" />
<ellipse cx="1152" cy="704" rx="4" ry="4" fill="#877777" fill-opacity="1" stroke="none" />
<ellipse cx="1152" cy="608" rx="4" ry="4" fill="#877777" fill-opacity="1" stroke="none" />
</g>
<g id="Wire">
<line x1="1056" y1="622" x2="1056" y2="690" stroke="#FFFFFF" stroke-opacity="1" stroke-width="6" stroke-linecap="round" fill="none" />
<line x1="1056" y1="608" x2="1056" y2="704" stroke="#877777" stroke-opacity="1" stroke-width="1.5" stroke-linecap="round" fill="none" />
<ellipse cx="1056" cy="704" rx="4" ry="4" fill="#877777" fill-opacity="1" stroke="none" />
</g>
<g id="Wire">
<line x1="1056" y1="714" x2="1056" y2="758" stroke="#FFFFFF" stroke-opacity="1" stroke-width="6" stroke-linecap="round" fill="none" />
<line x1="1056" y1="704" x2="1056" y2="768" stroke="#877777" stroke-opacity="1" stroke-width="1.5" stroke-linecap="round" fill="none" />
<ellipse cx="1056" cy="704" rx="4" ry="4" fill="#877777" fill-opacity="1" stroke="none" />
<ellipse cx="1056" cy="768" rx="4" ry="4" fill="#877777" fill-opacity="1" stroke="none" />
</g>
<g id="Wire">
<line x1="1152" y1="598" x2="1152" y2="554" stroke="#FFFFFF" stroke-opacity="1" stroke-width="6" stroke-linecap="round" fill="none" />
<line x1="1152" y1="608" x2="1152" y2="544" stroke="#877777" stroke-opacity="1" stroke-width="1.5" stroke-linecap="round" fill="none" />
<ellipse cx="1152" cy="608" rx="4" ry="4" fill="#877777" fill-opacity="1" stroke="none" />
</g>
<g id="BJT Transistor (NPN)">
<line x1="1152" y1="480" x2="1124" y2="500" stroke="#877777" stroke-opacity="1" stroke-width="3" stroke-linecap="round" fill="none" />
<line x1="1152" y1="544" x2="1124" y2="524" stroke="#877777" stroke-opacity="1" stroke-width="3" stroke-linecap="round" fill="none" />
<polygon fill="#877777" fill-opacity="1" stroke="none" points="1152,544 1144,528 1134,541 " />
<line x1="1088" y1="512" x2="1120" y2="512" stroke="#877777" stroke-opacity="1" stroke-width="3" stroke-linecap="round" fill="none" />
<polygon fill="#877777" fill-opacity="1" stroke="none" points="1120,486 1126,486 1126,538 1120,538 " />
<text x="1151" y="516.8" font-family="sans-serif" font-size="16" fill="#877777">2N3904</text>
</g>
<g id="Ground">
<line x1="1248" y1="480" x2="1248" y2="512" stroke="#877777" stroke-opacity="1" stroke-width="3" stroke-linecap="round" fill="none" />
<line x1="1258" y1="512" x2="1238" y2="512" stroke="#877777" stroke-opacity="1" stroke-width="3" stroke-linecap="round" fill="none" />
<line x1="1254" y1="517" x2="1242" y2="517" stroke="#877777" stroke-opacity="1" stroke-width="3" stroke-linecap="round" fill="none" />
<line x1="1250" y1="522" x2="1246" y2="522" stroke="#877777" stroke-opacity="1" stroke-width="3" stroke-linecap="round" fill="none" />
</g>
<g id="Wire">
<line x1="557" y1="992" x2="467" y2="992" stroke="#FFFFFF" stroke-opacity="1" stroke-width="6" stroke-linecap="round" fill="none" />
<line x1="576" y1="992" x2="448" y2="992" stroke="#877777" stroke-opacity="1" stroke-width="1.5" stroke-linecap="round" fill="none" />
<ellipse cx="576" cy="992" rx="4" ry="4" fill="#877777" fill-opacity="1" stroke="none" />
<ellipse cx="448" cy="992" rx="4" ry="4" fill="#877777" fill-opacity="1" stroke="none" />
</g>
<g id="Ground">
<line x1="704" y1="992" x2="704" y2="1024" stroke="#877777" stroke-opacity="1" stroke-width="3" stroke-linecap="round" fill="none" />
<line x1="714" y1="1024" x2="694" y2="1024" stroke="#877777" stroke-opacity="1" stroke-width="3" stroke-linecap="round" fill="none" />
<line x1="710" y1="1029" x2="698" y2="1029" stroke="#877777" stroke-opacity="1" stroke-width="3" stroke-linecap="round" fill="none" />
<line x1="706" y1="1034" x2="702" y2="1034" stroke="#877777" stroke-opacity="1" stroke-width="3" stroke-linecap="round" fill="none" />
</g>
<g id="Wire">
<line x1="685" y1="992" x2="595" y2="992" stroke="#FFFFFF" stroke-opacity="1" stroke-width="6" stroke-linecap="round" fill="none" />
<line x1="704" y1="992" x2="576" y2="992" stroke="#877777" stroke-opacity="1" stroke-width="1.5" stroke-linecap="round" fill="none" />
<ellipse cx="576" cy="992" rx="4" ry="4" fill="#877777" fill-opacity="1" stroke="none" />
</g>
<g id="Potentiometer">
<line x1="928" y1="480" x2="928" y2="496" stroke="#877777" stroke-opacity="1" stroke-width="3" stroke-linecap="round" fill="none" />
<line x1="928" y1="528" x2="928" y2="544" stroke="#877777" stroke-opacity="1" stroke-width="3" stroke-linecap="round" fill="none" />
<line x1="928" y1="496" x2="936" y2="498.6667" stroke="#877777" stroke-opacity="1" stroke-width="3" stroke-linecap="round" fill="none" />
<line x1="936" y1="498.6667" x2="928" y2="501.3333" stroke="#877777" stroke-opacity="1" stroke-width="3" stroke-linecap="round" fill="none" />
<line x1="928" y1="501.3333" x2="920" y2="504" stroke="#877777" stroke-opacity="1" stroke-width="3" stroke-linecap="round" fill="none" />
<line x1="920" y1="504" x2="928" y2="506.6667" stroke="#877777" stroke-opacity="1" stroke-width="3" stroke-linecap="round" fill="none" />
<line x1="928" y1="506.6667" x2="936" y2="509.3333" stroke="#877777" stroke-opacity="1" stroke-width="3" stroke-linecap="round" fill="none" />
<line x1="936" y1="509.3333" x2="928" y2="512" stroke="#877777" stroke-opacity="1" stroke-width="3" stroke-linecap="round" fill="none" />
<line x1="928" y1="512" x2="920" y2="514.6667" stroke="#877777" stroke-opacity="1" stroke-width="3" stroke-linecap="round" fill="none" />
<line x1="920" y1="514.6667" x2="928" y2="517.3333" stroke="#877777" stroke-opacity="1" stroke-width="3" stroke-linecap="round" fill="none" />
<line x1="928" y1="517.3333" x2="936" y2="520" stroke="#877777" stroke-opacity="1" stroke-width="3" stroke-linecap="round" fill="none" />
<line x1="936" y1="520" x2="928" y2="522.6667" stroke="#877777" stroke-opacity="1" stroke-width="3" stroke-linecap="round" fill="none" />
<line x1="928" y1="522.6667" x2="920" y2="525.3333" stroke="#877777" stroke-opacity="1" stroke-width="3" stroke-linecap="round" fill="none" />
<line x1="920" y1="525.3333" x2="928" y2="528" stroke="#877777" stroke-opacity="1" stroke-width="3" stroke-linecap="round" fill="none" />
<line x1="960" y1="512" x2="960" y2="512" stroke="#877777" stroke-opacity="1" stroke-width="3" stroke-linecap="round" fill="none" />
<line x1="960" y1="512" x2="936" y2="512" stroke="#877777" stroke-opacity="1" stroke-width="3" stroke-linecap="round" fill="none" />
<line x1="944" y1="520" x2="936" y2="512" stroke="#877777" stroke-opacity="1" stroke-width="3" stroke-linecap="round" fill="none" />
<line x1="944" y1="504" x2="936" y2="512" stroke="#877777" stroke-opacity="1" stroke-width="3" stroke-linecap="round" fill="none" />
<text x="943" y="540.8" font-family="sans-serif" font-size="16" fill="#000000">10k</text>
</g>
<g id="Wire">
<line x1="1014" y1="512" x2="970" y2="512" stroke="#FFFFFF" stroke-opacity="1" stroke-width="6" stroke-linecap="round" fill="none" />
<line x1="1024" y1="512" x2="960" y2="512" stroke="#877777" stroke-opacity="1" stroke-width="1.5" stroke-linecap="round" fill="none" />
<ellipse cx="1024" cy="512" rx="4" ry="4" fill="#877777" fill-opacity="1" stroke="none" />
</g>
<g id="Ground">
<line x1="928" y1="544" x2="928" y2="608" stroke="#877777" stroke-opacity="1" stroke-width="3" stroke-linecap="round" fill="none" />
<line x1="938" y1="608" x2="918" y2="608" stroke="#877777" stroke-opacity="1" stroke-width="3" stroke-linecap="round" fill="none" />
<line x1="934" y1="613" x2="922" y2="613" stroke="#877777" stroke-opacity="1" stroke-width="3" stroke-linecap="round" fill="none" />
<line x1="930" y1="618" x2="926" y2="618" stroke="#877777" stroke-opacity="1" stroke-width="3" stroke-linecap="round" fill="none" />
</g>
<g id="Wire">
<line x1="1302" y1="896" x2="1258" y2="896" stroke="#FFFFFF" stroke-opacity="1" stroke-width="6" stroke-linecap="round" fill="none" />
<line x1="1312" y1="896" x2="1248" y2="896" stroke="#877777" stroke-opacity="1" stroke-width="1.5" stroke-linecap="round" fill="none" />
<ellipse cx="1312" cy="896" rx="4" ry="4" fill="#877777" fill-opacity="1" stroke="none" />
<ellipse cx="1248" cy="896" rx="4" ry="4" fill="#877777" fill-opacity="1" stroke="none" />
</g>
<g id="Wire">
<line x1="1312" y1="882" x2="1312" y2="814" stroke="#FFFFFF" stroke-opacity="1" stroke-width="6" stroke-linecap="round" fill="none" />
<line x1="1312" y1="896" x2="1312" y2="800" stroke="#877777" stroke-opacity="1" stroke-width="1.5" stroke-linecap="round" fill="none" />
<ellipse cx="1312" cy="896" rx="4" ry="4" fill="#877777" fill-opacity="1" stroke="none" />
<ellipse cx="1312" cy="800" rx="4" ry="4" fill="#877777" fill-opacity="1" stroke="none" />
</g>
<g id="Wire">
<line x1="1394" y1="896" x2="1326" y2="896" stroke="#FFFFFF" stroke-opacity="1" stroke-width="6" stroke-linecap="round" fill="none" />
<line x1="1408" y1="896" x2="1312" y2="896" stroke="#877777" stroke-opacity="1" stroke-width="1.5" stroke-linecap="round" fill="none" />
<ellipse cx="1312" cy="896" rx="4" ry="4" fill="#877777" fill-opacity="1" stroke="none" />
</g>
<g id="Capacitor">
<line x1="1408" y1="896" x2="1436" y2="896" stroke="#877777" stroke-opacity="1" stroke-width="3" stroke-linecap="round" fill="none" />
<line x1="1436" y1="884" x2="1436" y2="908" stroke="#877777" stroke-opacity="1" stroke-width="3" stroke-linecap="round" fill="none" />
<line x1="1472" y1="896" x2="1444" y2="896" stroke="#877777" stroke-opacity="1" stroke-width="3" stroke-linecap="round" fill="none" />
<path d="M 1448.686 884.6863 A 16 16 0 0 0 1448.686 907.3137" stroke="#877777" stroke-opacity="1" stroke-width="3" stroke-linecap="round" fill="none" fill-opacity="0" />
<ellipse cx="1472" cy="896" rx="4" ry="4" fill="#877777" fill-opacity="1" stroke="none" />
<text x="1422" y="878.8" font-family="sans-serif" font-size="16" fill="#000000">10uF</text>
</g>
<g id="Potentiometer">
<line x1="800" y1="448" x2="800" y2="464" stroke="#877777" stroke-opacity="1" stroke-width="3" stroke-linecap="round" fill="none" />
<line x1="800" y1="496" x2="800" y2="512" stroke="#877777" stroke-opacity="1" stroke-width="3" stroke-linecap="round" fill="none" />
<line x1="800" y1="464" x2="808" y2="466.6667" stroke="#877777" stroke-opacity="1" stroke-width="3" stroke-linecap="round" fill="none" />
<line x1="808" y1="466.6667" x2="800" y2="469.3333" stroke="#877777" stroke-opacity="1" stroke-width="3" stroke-linecap="round" fill="none" />
<line x1="800" y1="469.3333" x2="792" y2="472" stroke="#877777" stroke-opacity="1" stroke-width="3" stroke-linecap="round" fill="none" />
<line x1="792" y1="472" x2="800" y2="474.6667" stroke="#877777" stroke-opacity="1" stroke-width="3" stroke-linecap="round" fill="none" />
<line x1="800" y1="474.6667" x2="808" y2="477.3333" stroke="#877777" stroke-opacity="1" stroke-width="3" stroke-linecap="round" fill="none" />
<line x1="808" y1="477.3333" x2="800" y2="480" stroke="#877777" stroke-opacity="1" stroke-width="3" stroke-linecap="round" fill="none" />
<line x1="800" y1="480" x2="792" y2="482.6667" stroke="#877777" stroke-opacity="1" stroke-width="3" stroke-linecap="round" fill="none" />
<line x1="792" y1="482.6667" x2="800" y2="485.3333" stroke="#877777" stroke-opacity="1" stroke-width="3" stroke-linecap="round" fill="none" />
<line x1="800" y1="485.3333" x2="808" y2="488" stroke="#877777" stroke-opacity="1" stroke-width="3" stroke-linecap="round" fill="none" />
<line x1="808" y1="488" x2="800" y2="490.6667" stroke="#877777" stroke-opacity="1" stroke-width="3" stroke-linecap="round" fill="none" />
<line x1="800" y1="490.6667" x2="792" y2="493.3333" stroke="#877777" stroke-opacity="1" stroke-width="3" stroke-linecap="round" fill="none" />
<line x1="792" y1="493.3333" x2="800" y2="496" stroke="#877777" stroke-opacity="1" stroke-width="3" stroke-linecap="round" fill="none" />
<line x1="832" y1="480" x2="832" y2="486" stroke="#877777" stroke-opacity="1" stroke-width="3" stroke-linecap="round" fill="none" />
<line x1="832" y1="486" x2="808" y2="486" stroke="#877777" stroke-opacity="1" stroke-width="3" stroke-linecap="round" fill="none" />
<line x1="816" y1="494" x2="808" y2="486" stroke="#877777" stroke-opacity="1" stroke-width="3" stroke-linecap="round" fill="none" />
<line x1="816" y1="478" x2="808" y2="486" stroke="#877777" stroke-opacity="1" stroke-width="3" stroke-linecap="round" fill="none" />
<text x="815" y="508.8" font-family="sans-serif" font-size="16" fill="#000000">10k</text>
</g>
<g id="Ground">
<line x1="800" y1="544" x2="800" y2="608" stroke="#877777" stroke-opacity="1" stroke-width="3" stroke-linecap="round" fill="none" />
<line x1="810" y1="608" x2="790" y2="608" stroke="#877777" stroke-opacity="1" stroke-width="3" stroke-linecap="round" fill="none" />
<line x1="806" y1="613" x2="794" y2="613" stroke="#877777" stroke-opacity="1" stroke-width="3" stroke-linecap="round" fill="none" />
<line x1="802" y1="618" x2="798" y2="618" stroke="#877777" stroke-opacity="1" stroke-width="3" stroke-linecap="round" fill="none" />
</g>
<g id="Triangle Source">
<line x1="672" y1="448" x2="687" y2="448" stroke="#877777" stroke-opacity="1" stroke-width="3" stroke-linecap="round" fill="none" />
<line x1="721" y1="448" x2="736" y2="448" stroke="#877777" stroke-opacity="1" stroke-width="3" stroke-linecap="round" fill="none" />
<ellipse cx="704" cy="448" rx="17" ry="17" fill="#FFFFFF" fill-opacity="0.831372549019608" stroke="none" />
<ellipse cx="704" cy="448" rx="17" ry="17" stroke="#000000" stroke-opacity="1" stroke-width="3" fill="none" />
<line x1="694" y1="448" x2="699" y2="440" stroke="#000000" stroke-opacity="1" stroke-width="3" stroke-linecap="round" fill="none" />
<line x1="699" y1="440" x2="704" y2="448" stroke="#000000" stroke-opacity="1" stroke-width="3" stroke-linecap="round" fill="none" />
<line x1="704" y1="448" x2="709" y2="456" stroke="#000000" stroke-opacity="1" stroke-width="3" stroke-linecap="round" fill="none" />
<line x1="709" y1="456" x2="714" y2="448" stroke="#000000" stroke-opacity="1" stroke-width="3" stroke-linecap="round" fill="none" />
<text x="674" y="418.8" font-family="sans-serif" font-size="16" fill="#000000">930mHz</text>
</g>
<g id="Ground">
<line x1="672" y1="448" x2="672" y2="512" stroke="#877777" stroke-opacity="1" stroke-width="3" stroke-linecap="round" fill="none" />
<line x1="682" y1="512" x2="662" y2="512" stroke="#877777" stroke-opacity="1" stroke-width="3" stroke-linecap="round" fill="none" />
<line x1="678" y1="517" x2="666" y2="517" stroke="#877777" stroke-opacity="1" stroke-width="3" stroke-linecap="round" fill="none" />
<line x1="674" y1="522" x2="670" y2="522" stroke="#877777" stroke-opacity="1" stroke-width="3" stroke-linecap="round" fill="none" />
</g>
<g id="Speaker">
<line x1="1472" y1="896" x2="1472" y2="907" stroke="#877777" stroke-opacity="1" stroke-width="3" stroke-linecap="round" fill="none" />
<line x1="1472" y1="949" x2="1472" y2="960" stroke="#877777" stroke-opacity="1" stroke-width="3" stroke-linecap="round" fill="none" />
<polygon fill="#877777" fill-opacity="1" stroke="none" points="1456,920 1456,936 1472,936 1483,945 1483,911 1472,920 " />
<ellipse cx="1472" cy="896" rx="4" ry="4" fill="#877777" fill-opacity="1" stroke="none" />
</g>
<g id="Ground">
<line x1="1472" y1="960" x2="1472" y2="1024" stroke="#877777" stroke-opacity="1" stroke-width="3" stroke-linecap="round" fill="none" />
<line x1="1482" y1="1024" x2="1462" y2="1024" stroke="#877777" stroke-opacity="1" stroke-width="3" stroke-linecap="round" fill="none" />
<line x1="1478" y1="1029" x2="1466" y2="1029" stroke="#877777" stroke-opacity="1" stroke-width="3" stroke-linecap="round" fill="none" />
<line x1="1474" y1="1034" x2="1470" y2="1034" stroke="#877777" stroke-opacity="1" stroke-width="3" stroke-linecap="round" fill="none" />
</g>
<g id="Capacitor">
<line x1="1024" y1="512" x2="1024" y2="540" stroke="#877777" stroke-opacity="1" stroke-width="3" stroke-linecap="round" fill="none" />
<line x1="1036" y1="540" x2="1012" y2="540" stroke="#877777" stroke-opacity="1" stroke-width="3" stroke-linecap="round" fill="none" />
<line x1="1024" y1="576" x2="1024" y2="548" stroke="#877777" stroke-opacity="1" stroke-width="3" stroke-linecap="round" fill="none" />
<path d="M 1035.314 552.6863 A 16 16 0 0 0 1012.686 552.6863" stroke="#877777" stroke-opacity="1" stroke-width="3" stroke-linecap="round" fill="none" fill-opacity="0" />
<ellipse cx="1024" cy="512" rx="4" ry="4" fill="#877777" fill-opacity="1" stroke="none" />
<text x="1042" y="548.8" font-family="sans-serif" font-size="16" fill="#000000">3.3uF</text>
</g>
<g id="Wire">
<line x1="1078" y1="512" x2="1034" y2="512" stroke="#FFFFFF" stroke-opacity="1" stroke-width="6" stroke-linecap="round" fill="none" />
<line x1="1088" y1="512" x2="1024" y2="512" stroke="#877777" stroke-opacity="1" stroke-width="1.5" stroke-linecap="round" fill="none" />
<ellipse cx="1024" cy="512" rx="4" ry="4" fill="#877777" fill-opacity="1" stroke="none" />
</g>
<g id="Ground">
<line x1="1024" y1="576" x2="1024" y2="640" stroke="#877777" stroke-opacity="1" stroke-width="3" stroke-linecap="round" fill="none" />
<line x1="1034" y1="640" x2="1014" y2="640" stroke="#877777" stroke-opacity="1" stroke-width="3" stroke-linecap="round" fill="none" />
<line x1="1030" y1="645" x2="1018" y2="645" stroke="#877777" stroke-opacity="1" stroke-width="3" stroke-linecap="round" fill="none" />
<line x1="1026" y1="650" x2="1022" y2="650" stroke="#877777" stroke-opacity="1" stroke-width="3" stroke-linecap="round" fill="none" />
</g>
<g id="CV Trim">
<rect x="920" y="440" width="70" height="24" fill="#FFFFFF" fill-opacity="0.831372549019608" stroke="none" />
<text x="928" y="459.2" font-family="sans-serif" font-size="14" fill="#000000">CV Trim</text>
</g>
<g id="Cutoff">
<rect x="792" y="408" width="58" height="24" fill="#FFFFFF" fill-opacity="0.831372549019608" stroke="none" />
<text x="800" y="427.2" font-family="sans-serif" font-size="14" fill="#000000">Cutoff</text>
</g>
<g id="Wire">
<line x1="512" y1="1120" x2="1408" y2="1120" stroke="#FFFFFF" stroke-opacity="1" stroke-width="6" stroke-linecap="round" fill="none" />
<line x1="320" y1="1120" x2="1600" y2="1120" stroke="#877777" stroke-opacity="1" stroke-width="1.5" stroke-linecap="round" fill="none" />
<rect x="316" y="1116" width="8" height="8" stroke="#877777" stroke-opacity="1" stroke-width="1" fill="none" />
<ellipse cx="1600" cy="1120" rx="4" ry="4" stroke="#877777" stroke-opacity="1" stroke-width="1" fill="none" />
</g>
<g id="Bipolar Power Supply">
<rect x="440" y="856" width="160" height="24" fill="#FFFFFF" fill-opacity="0.831372549019608" stroke="none" />
<text x="448" y="875.2" font-family="sans-serif" font-size="14" fill="#000000">Bipolar Power Supply</text>
</g>
<g id="Audio IN">
<rect x="760" y="792" width="74" height="24" fill="#FFFFFF" fill-opacity="0.831372549019608" stroke="none" />
<text x="768" y="811.2" font-family="sans-serif" font-size="14" fill="#000000">Audio IN</text>
</g>
<g id="CV IN">
<rect x="696" y="376" width="54" height="24" fill="#FFFFFF" fill-opacity="0.831372549019608" stroke="none" />
<text x="704" y="395.2" font-family="sans-serif" font-size="14" fill="#000000">CV IN</text>
</g>
<g id="Wire">
<line x1="805" y1="864" x2="827" y2="864" stroke="#FFFFFF" stroke-opacity="1" stroke-width="6" stroke-linecap="round" fill="none" />
<line x1="800" y1="864" x2="832" y2="864" stroke="#877777" stroke-opacity="1" stroke-width="1.5" stroke-linecap="round" fill="none" />
</g>
<g id="Wire">
<line x1="800" y1="517" x2="800" y2="539" stroke="#FFFFFF" stroke-opacity="1" stroke-width="6" stroke-linecap="round" fill="none" />
<line x1="800" y1="512" x2="800" y2="544" stroke="#877777" stroke-opacity="1" stroke-width="1.5" stroke-linecap="round" fill="none" />
</g>
<g id="Wire">
<line x1="846" y1="480" x2="914" y2="480" stroke="#FFFFFF" stroke-opacity="1" stroke-width="6" stroke-linecap="round" fill="none" />
<line x1="832" y1="480" x2="928" y2="480" stroke="#877777" stroke-opacity="1" stroke-width="1.5" stroke-linecap="round" fill="none" />
</g>
<g id="Wire">
<line x1="746" y1="448" x2="790" y2="448" stroke="#FFFFFF" stroke-opacity="1" stroke-width="6" stroke-linecap="round" fill="none" />
<line x1="736" y1="448" x2="800" y2="448" stroke="#877777" stroke-opacity="1" stroke-width="1.5" stroke-linecap="round" fill="none" />
</g>
<g id="Audio OUT">
<rect x="1496" y="856" width="89" height="24" fill="#FFFFFF" fill-opacity="0.831372549019608" stroke="none" />
<text x="1504" y="875.2" font-family="sans-serif" font-size="14" fill="#000000">Audio OUT</text>
</g>
<g id="Internal Port">
<polygon fill="#FFFFFF" fill-opacity="0.831372549019608" stroke="none" points="1504,896 1512,886 1568,886 1568,906 1512,906 " />
<polygon stroke="#000000" stroke-opacity="1" stroke-width="1" stroke-linejoin="round" fill="none" points="1504,896 1512,886 1568,886 1568,906 1512,906 " />
<text x="1536" y="900.2" font-family="sans-serif" font-size="14" fill="#000000"></text>
</g>
<g id="Wire">
<line x1="1499" y1="896" x2="1477" y2="896" stroke="#FFFFFF" stroke-opacity="1" stroke-width="6" stroke-linecap="round" fill="none" />
<line x1="1504" y1="896" x2="1472" y2="896" stroke="#877777" stroke-opacity="1" stroke-width="1.5" stroke-linecap="round" fill="none" />
<ellipse cx="1472" cy="896" rx="4" ry="4" fill="#877777" fill-opacity="1" stroke="none" />
</g>
<g id="Wire">
<line x1="1234" y1="480" x2="1166" y2="480" stroke="#FFFFFF" stroke-opacity="1" stroke-width="6" stroke-linecap="round" fill="none" />
<line x1="1248" y1="480" x2="1152" y2="480" stroke="#877777" stroke-opacity="1" stroke-width="1.5" stroke-linecap="round" fill="none" />
</g>
<g id="VCF">
<rect x="312" y="472" width="213" height="128" fill="#FFFFFF" fill-opacity="0.831372549019608" stroke="none" />
<text x="320" y="560" font-family="sans-serif" font-size="100" fill="#000000">VCF</text>
</g>
<g id="(Voltage-Controlled Filter)">
<rect x="312" y="632" width="533" height="58" fill="#FFFFFF" fill-opacity="0.831372549019608" stroke="none" />
<text x="320" y="673.6" font-family="sans-serif" font-size="42" fill="#000000">(Voltage-Controlled Filter)</text>
</g>
<g id="based on Lorencz (2015)">
<rect x="312" y="696" width="237" height="30" fill="#FFFFFF" fill-opacity="0.831372549019608" stroke="none" />
<text x="320" y="719.2" font-family="sans-serif" font-size="19" fill="#000000">based on Lorencz (2015)</text>
</g>
</svg>
